{"title":"Teenage Mutant Ninja Turtles Out of the Shadows CAM V.2 x264-P2P","uid":14843447,"size":1737166667,"categoryP":"video","categoryS":"movies","magnet":"?xt=urn:btih:b9a94438d6bb6d28a1ac3153f8917219aaab17ef&amp;dn=Teenage+Mutant+Ninja+Turtles+Out+of+the+Shadows+CAM+V.2+x264-P2P&amp;tr=udp%3A%2F%2Ftracker.leechers-paradise.org%3A6969&amp;tr=udp%3A%2F%2Fzer0day.ch%3A1337&amp;tr=udp%3A%2F%2Fopen.demonii.com%3A1337&amp;tr=udp%3A%2F%2Ftracker.coppersurfer.tk%3A6969&amp;tr=udp%3A%2F%2Fexodus.desync.com%3A6969","seeders":24,"leechers":5,"uploader":"xxxlavalxxx","files":3,"time":1465400320,"description":"http://extraimago.com/image/a4WC\r\n \nhttp://www.imdb.com/title/tt3949660/\r\n\r\n\r\nAs Shredder joins forces with mad scientist Baxter Stockman and henchmen Bebop and Rocksteady to take over the world, the Turtles must confront an even greater nemesis: the notorious Krang.\r\n\r\nDirector: Dave Green\r\nWriters: Josh Appelbaum, André Nemec\r\nStars: Megan Fox, Will Arnett, Tyler Perry \r\nGenres: Action | Adventure | Comedy | Fantasy | Sci-Fi\r\nCountry: USA\r\nLanguage: English\r\n\r\n\r\nSource: LATINO+TOPDog\r\nSample: included\r\n\r\nNote: Full Movie and New Audio!\r\n\r\nFormat                         : Matroska\r\nFile size                      : 1.60 GiB\r\nDuration                       : 1h 44mn\r\nOverall bit rate               : 2 198 Kbps\r\n\r\n\r\nVideo\r\nID                             : 1\r\nFormat                         : AVC\r\nFormat/Info                    : Advanced Video Codec\r\nFormat profile                 :   \r\nFormat settings, CABAC         : Yes\r\nFormat settings, ReFrames      : 3 frames\r\nCodec ID                       : V_MPEG4/ISO/AVC\r\nDuration                       : 1h 44mn\r\nBit rate                       : 2 000 Kbps\r\nWidth                          : 720 pixels\r\nHeight                         : 336 pixels\r\nDisplay aspect ratio           : 2.143\r\nFrame rate mode                : Constant\r\nFrame rate                     : 30.000 fps\r\nColor space                    : YUV\r\nChroma subsampling             : 4:2:0\r\nBit depth                      : 8 bits\r\nScan type                      : Progressive\r\nBits/(Pixel*Frame)             : 0.276\r\nStream size                    : 1.46 GiB (91%)\r\n\r\nAudio\r\nID                             : 2\r\nFormat                         : AAC\r\nFormat/Info                    : Advanced Audio Codec\r\nFormat profile                 : LC\r\nCodec ID                       : A_AAC\r\nDuration                       : 1h 44mn\r\nBit rate                       : 192 Kbps\r\nChannel(s)                     : 2 channels\r\nChannel positions              : Front: L R\r\nSampling rate                  : 48.0 KHz\r\nFrame rate                     : 46.875 fps (1024 spf)\r\nCompression mode               : Lossy\r\nStream size                    : 146 MiB (9%)\r\nDefault                        : Yes\r\nForced                         : No\r\n\r\n \nhttp://extraimago.com/image/a4Wp \nhttp://extraimago.com/image/a4Wr \nhttp://extraimago.com/image/a4WG \nhttp://extraimago.com/image/a4WP \nhttp://extraimago.com/image/a4WX \nhttp://extraimago.com/image/a4Wg \nhttp://extraimago.com/image/a4W5 \nhttp://extraimago.com/image/a4WD \nhttp://extraimago.com/image/a4WF","torrent":{"xt":"urn:btih:b9a94438d6bb6d28a1ac3153f8917219aaab17ef","amp;dn":"Teenage+Mutant+Ninja+Turtles+Out+of+the+Shadows+CAM+V.2+x264-P2P","amp;tr":["udp%3A%2F%2Ftracker.leechers-paradise.org%3A6969","udp%3A%2F%2Fzer0day.ch%3A1337","udp%3A%2F%2Fopen.demonii.com%3A1337","udp%3A%2F%2Ftracker.coppersurfer.tk%3A6969","udp%3A%2F%2Fexodus.desync.com%3A6969"],"infoHash":"b9a94438d6bb6d28a1ac3153f8917219aaab17ef","infoHashBuffer":{"type":"Buffer","data":[185,169,68,56,214,187,109,40,161,172,49,83,248,145,114,25,170,171,23,239]},"announce":[],"urlList":[]}}